#define broken_close_width 8
#define broken_close_height 8
static unsigned char broken_close_bits[] = {
   0xc3, 0xe7, 0x66, 0x00, 0x00, 0x66, 0xe7, 0xc3 };
